# AST/ASF file generated using VICON BodyLanguage
# -----------------------------------------------
:version 1.10
:name VICON
:units
  mass 1.0
  length 0.45
  angle deg
:documentation
   .ast/.asf automatically generated from VICON data using
   VICON BodyBuilder and BodyLanguage model FoxedUp or BRILLIANT.MOD
:root
   order TX TY TZ RX RY RZ
   axis XYZ
   position 0 0 0  
   orientation 0 0 0 
:bonedata
  begin
     id 1 
     name lhipjoint
     direction 0.624716 -0.669793 0.401383 
     length 2.38238 
     axis 0 0 0  XYZ
  end
  begin
     id 2 
     name lfemur
     direction 0.34202 -0.939693 0  
     length 6.4574  
     axis 0 0 20  XYZ
    dof rx ry rz
    limits (-160.0 20.0)
           (-70.0 70.0)
           (-60.0 70.0)
  end
  begin
     id 3 
     name ltibia
     direction 0.34202 -0.939693 0   
     length 7.68739   
     axis 0 0 20   XYZ
    dof rx
    limits (-10.0 170.0)
  end
  begin
     id 4 
     name lfoot
     direction 0.0681309 -0.187188 0.979959   
     length 2.46615   
     axis -90 7.62852e-016 20   XYZ
    dof rx rz
    limits (-45.0 90.0)
           (-70.0 20.0)
  end
  begin
     id 5 
     name ltoes
     direction 1.53566e-011 -4.21819e-011 1   
     length 1.2376   
     axis -90 7.62852e-016 20   XYZ
    dof rx
    limits (-90.0 20.0)
  end
  begin
     id 6 
     name rhipjoint
     direction -0.644473 -0.655875 0.393043   
     length 2.43293  
     axis 0 0 0  XYZ 
  end
  begin
     id 7 
     name rfemur
     direction -0.34202 -0.939693 0   
     length 6.7025   
     axis 0 0 -20   XYZ
    dof rx ry rz
    limits (-160.0 20.0)
           (-70.0 70.0)
           (-70.0 60.0)
  end
  begin
     id 8 
     name rtibia
     direction -0.34202 -0.939693 0   
     length 7.80547   
     axis 0 0 -20   XYZ
    dof rx
    limits (-10.0 170.0)
 end
 begin
     id 9 
     name rfoot
     direction -0.0756734 -0.207911 0.975216   
     length 2.40315  
     axis -90 -7.62852e-016 -20   XYZ
    dof rx rz
    limits (-45.0 90.0)
           (-20.0 70.0)
  end
  begin
     id 10 
     name rtoes
     direction -1.5353e-011 -4.21879e-011 1   
     length 1.20477   
     axis -90 -7.62852e-016 -20   XYZ
    dof rx
    limits (-90.0 20.0)
  end
  begin
     id 11 
     name lowerback
     direction 0.0160353 0.987463 -0.157037   
     length 2.18572   
     axis 0 0 0   XYZ
    dof rx ry rz
    limits (-20.0 45.0)
           (-30.0 30.0)
           (-30.0 30.0)
  end
  begin
     id 12 
     name upperback
     direction -0.00499661 0.999756 0.0215076   
     length 2.18016   
     axis 0 0 0   XYZ
    dof rx ry rz
    limits (-20.0 45.0)
           (-30.0 30.0)
           (-30.0 30.0)
  end
  begin
     id 13 
     name thorax
     direction -0.00921346 0.995333 0.0960619   
     length 2.24923   
     axis 0 0 0   XYZ
    dof rx ry rz
    limits (-20.0 45.0)
           (-30.0 30.0)
           (-30.0 30.0)
  end
  begin
     id 14 
     name lowerneck
     direction 0.0274184 0.991181 0.12965   
     length 1.70911   
     axis 0 0 0   XYZ
    dof rx ry rz
    limits (-20.0 45.0)
           (-30.0 30.0)
           (-30.0 30.0)
  end
  begin
     id 15 
     name upperneck
     direction 0.0015627 0.999959 -0.00893559   
     length 1.69312   
     axis 0 0 0   XYZ
    dof rx ry rz
    limits (-20.0 45.0)
           (-30.0 30.0)
           (-30.0 30.0)
  end
  begin
     id 16
     name head
     direction -0.00230242 0.999856 -0.0168327  
     length 1.80241  
     axis 0 0 0   XYZ
    dof rx ry rz
    limits (-20.0 45.0)
           (-30.0 30.0)
           (-30.0 30.0)
  end
  begin
     id 17 
     name lclavicle
     direction 0.955523 0.290741 -0.0494489  
     length 3.84275  
     axis 0 0 0   XYZ
    dof ry rz
    limits (-20.0 10.0)
           (0.0 20.0)
  end
  begin
     id 18 
     name lhumerus
     direction 1 -4.48967e-011 -3.18382e-028   
     length 5.17714   
     axis 180 -30 -90   XYZ
    dof rx ry rz
    limits (-60.0 90.0)
           (-90.0 90.0)
           (-90.0 90.0)
  end
  begin
     id 19
     name lradius
     direction 1 -4.48968e-011 -2.22911e-027   
     length 3.43679   
     axis 180 -30 -90   XYZ
    dof rx
    limits (-10.0 170.0)
  end
  begin
     id 20
     name lwrist
     direction 1 -4.48951e-011 -6.32245e-027   
     length 1.7184   
     axis 3.57107e-015 90 90   XYZ
    dof ry
    limits (-180.0 0.0)
 end
  begin
     id 21 
     name lhand
     direction 1 -4.48924e-011 -1.26431e-026   
     length 0.573117   
     axis 8.06912e-015 90 90   XYZ
    dof rx rz
    limits (-90.0 90.0)
           (-45.0 45.0)
  end
  begin
     id 22 
     name lfingers
     direction 1 -4.49001e-011 -2.52965e-026   
     length 0.462062   
     axis 1.61381e-014 90 90   XYZ
    dof rx
    limits (0.0 90.0)
  end
  begin
     id 23
     name lthumb
     direction 0.707107 -6.35008e-011 0.707107   
     length 0.663431   
     axis -90 45 -1.62303e-014   XYZ
    dof rx rz
    limits (-45.0 45.0)
           (-45.0 45.0)
  end
  begin
     id 24 
     name rclavicle
     direction -0.963917 0.256881 -0.0698287   
     length 3.73057  
     axis 0 0 0   XYZ 
    dof ry rz
    limits (-10.0 20.0)
           (-20.0 0.0)
  end
  begin
     id 25 
     name rhumerus
     direction -1 -4.48962e-011 -2.73982e-027  
     length 5.23908   
     axis 180 30 90   XYZ
    dof rx ry rz
    limits (-90.0 60.0)
           (-90.0 90.0)
           (-90.0 90.0)
  end
  begin
     id 26 
     name rradius
     direction -1 -4.48968e-011 -4.33218e-027   
     length 3.46485   
     axis 180 30 90   XYZ
    dof rx
    limits (-10.0 170.0)
  end
  begin
     id 27 
     name rwrist
     direction -1 -4.48989e-011 -6.32372e-027   
     length 1.73243   
     axis 3.57107e-015 -90 -90   XYZ
    dof ry
    limits (-180.0 0.0)
  end
  begin
     id 28
     name rhand
     direction -1 -4.48948e-011 -1.26448e-026   
     length 0.608752   
     axis 8.06912e-015 -90 -90   XYZ
    dof rx rz
    limits (-90.0 90.0)
           (-45.0 45.0)
  end
  begin
     id 29
     name rfingers
     direction -1 -4.48962e-011 -2.52913e-026   
     length 0.490792   
     axis 1.61381e-014 -90 -90   XYZ
    dof rx
    limits (0.0 90.0)
  end
  begin
     id 30
     name rthumb
     direction -0.707107 -6.34878e-011 0.707107   
     length 0.704682   
     axis -90 -45 1.62303e-014   XYZ
    dof rx rz
    limits (-45.0 45.0)
           (-45.0 45.0)
  end
:hierarchy
  begin
    root lhipjoint rhipjoint lowerback
    lhipjoint lfemur
    lfemur ltibia
    ltibia lfoot
    lfoot ltoes
    rhipjoint rfemur
    rfemur rtibia
    rtibia rfoot
    rfoot rtoes
    lowerback upperback
    upperback thorax
    thorax lowerneck lclavicle rclavicle
    lowerneck upperneck
    upperneck head
    lclavicle lhumerus
    lhumerus lradius
    lradius lwrist
    lwrist lhand lthumb
    lhand lfingers
    rclavicle rhumerus
    rhumerus rradius
    rradius rwrist
    rwrist rhand rthumb
    rhand rfingers
  end

#!OML:ASF G:\JayActor3\Patient Classification 1\Patient 1\Session 6\male.ASF
:FULLY-SPECIFIED
:DEGREES
285
root 6.21456 16.3594 -2.98986 158.315 -83.3663 -160.224
lowerback 2.00948 -2.08102 1.33219
upperback -0.0648203 -2.73835 0.991712
thorax -1.20553 -1.37657 0.35301
lowerneck 13.3446 -4.16614 -0.180651
upperneck -24.5164 -6.31922 0.512705
head -9.96416 -3.15862 1.02647
rclavicle 6.85497e-015 8.94531e-015
rhumerus -18.806 33.8923 -88.2106
rradius 95.4423
rwrist -5.51318
rhand -37.9713 -5.76834
rfingers 7.12502
rthumb -11.0116 -35.4595
lclavicle 6.85497e-015 8.94531e-015
lhumerus -4.29708 -12.1646 71.076
lradius 77.8261
lwrist 40.9914
lhand -28.1655 12.7634
lfingers 7.12502
lthumb -1.54572 42.7375
rfemur -29.0648 10.6972 21.979
rtibia 38.9522
rfoot -12.3498 -8.61324
rtoes -4.79598
lfemur 5.92619 13.4497 -22.7424
ltibia 13.1605
lfoot -18.0124 5.07156
ltoes 0.594471
286
root 6.18924 16.3656 -2.99471 157.722 -83.5558 -159.656
lowerback 1.99625 -2.08277 1.31512
upperback -0.0677515 -2.74128 0.982771
thorax -1.20077 -1.37788 0.353008
lowerneck 13.3432 -4.30709 -0.241008
upperneck -24.4285 -6.50808 0.576735
head -9.92669 -3.24679 1.07922
rclavicle 1.83596e-014 -5.56597e-015
rhumerus -18.7302 33.889 -88.2213
rradius 95.5603
rwrist -5.3593
rhand -38.2471 -5.62119
rfingers 7.12502
rthumb -11.2776 -35.298
lclavicle 1.83596e-014 -5.56597e-015
lhumerus -4.44273 -12.2082 71.0939
lradius 77.9885
lwrist 41.1154
lhand -28.1946 12.6718
lfingers 7.12502
lthumb -1.57384 42.6458
rfemur -29.1909 10.2081 22.151
rtibia 38.6173
rfoot -11.7207 -8.76745
rtoes -4.34732
lfemur 6.44424 13.3622 -22.7078
ltibia 12.4306
lfoot -17.7559 4.97587
ltoes 0.566438
287
root 6.16303 16.372 -2.99977 157.115 -83.7507 -159.067
lowerback 1.9764 -2.08668 1.29331
upperback -0.0742214 -2.74725 0.974643
thorax -1.19568 -1.38069 0.356384
lowerneck 13.3456 -4.44705 -0.296516
upperneck -24.3486 -6.69711 0.632425
head -9.89312 -3.33462 1.12843
rclavicle 5.85297e-014 -1.78906e-015
rhumerus -18.663 33.8916 -88.2338
rradius 95.6733
rwrist -5.20108
rhand -38.544 -5.47735
rfingers 7.12502
rthumb -11.5639 -35.1383
lclavicle 5.85297e-014 -1.78906e-015
lhumerus -4.59451 -12.2572 71.1168
lradius 78.1439
lwrist 41.2343
lhand -28.218 12.583
lfingers 7.12502
lthumb -1.59642 42.5568
rfemur -29.317 9.71731 22.3203
rtibia 38.3067
rfoot -11.0976 -9.01591
rtoes -3.93954
lfemur 6.98432 13.2724 -22.6783
ltibia 11.6517
lfoot -17.4743 4.8925
ltoes 0.480692
288
root 6.13617 16.3782 -3.0053 156.439 -83.9371 -158.402
lowerback 1.95444 -2.08898 1.27445
upperback -0.0868711 -2.75092 0.970322
thorax -1.19568 -1.3824 0.362012
lowerneck 13.3469 -4.58558 -0.345487
upperneck -24.268 -6.88546 0.676622
head -9.8596 -3.42153 1.17228
rclavicle 1.73766e-014 -1.98785e-015
rhumerus -18.6079 33.8975 -88.2515
rradius 95.7825
rwrist -5.04264
rhand -38.8644 -5.34433
rfingers 7.12502
rthumb -11.8729 -34.9877
lclavicle 1.73766e-014 -1.98785e-015
lhumerus -4.75595 -12.3137 71.1438
lradius 78.2945
lwrist 41.3415
lhand -28.238 12.4956
lfingers 7.12502
lthumb -1.61577 42.4692
rfemur -29.4428 9.2479 22.496
rtibia 38.0177
rfoot -10.5014 -9.37323
rtoes -3.51768
lfemur 7.53681 13.1775 -22.6433
ltibia 10.8391
lfoot -17.175 4.81873
ltoes 0.396775
289
root 6.10861 16.3842 -3.01105 155.805 -84.1262 -157.773
lowerback 1.92244 -2.09236 1.2452
upperback -0.0992097 -2.75647 0.965679
thorax -1.18927 -1.38495 0.372726
lowerneck 13.3368 -4.72118 -0.391978
upperneck -24.1858 -7.07077 0.714743
head -9.82358 -3.50692 1.21268
rclavicle -5.54112e-015 3.97569e-015
rhumerus -18.5507 33.9126 -88.268
rradius 95.8874
rwrist -4.89553
rhand -39.2078 -5.22259
rfingers 7.12502
rthumb -12.204 -34.8466
lclavicle -5.54112e-015 3.97569e-015
lhumerus -4.91666 -12.3718 71.1713
lradius 78.4389
lwrist 41.4334
lhand -28.2594 12.4043
lfingers 7.12502
lthumb -1.63642 42.3778
rfemur -29.5664 8.79273 22.6588
rtibia 37.7515
rfoot -9.98157 -9.83213
rtoes -3.00412
lfemur 8.09654 13.0797 -22.6189
ltibia 10.0044
lfoot -16.8645 4.74572
ltoes 0.311662
290
root 6.08046 16.3894 -3.01723 155.078 -84.3007 -157.046
lowerback 1.88793 -2.09233 1.22388
upperback -0.11447 -2.75727 0.965537
thorax -1.18457 -1.38521 0.383449
lowerneck 13.3133 -4.85709 -0.436154
upperneck -24.0926 -7.25673 0.747171
head -9.78131 -3.5925 1.24987
rclavicle -4.2397e-015 1.20762e-014
rhumerus -18.4977 33.9294 -88.2872
rradius 95.9887
rwrist -4.75719
rhand -39.5603 -5.1011
rfingers 7.12502
rthumb -12.5439 -34.7046
lclavicle -4.2397e-015 1.20762e-014
lhumerus -5.08152 -12.4348 71.2012
lradius 78.5781
lwrist 41.503
lhand -28.2817 12.3055
lfingers 7.12502
lthumb -1.65799 42.2788
rfemur -29.6832 8.35411 22.835
rtibia 37.5054
rfoot -9.54412 -10.3869
rtoes -2.43989
lfemur 8.65061 12.8228 -22.6082
ltibia 9.16339
lfoot -16.5427 4.8374
ltoes 0.237958
291
root 6.05151 16.3937 -3.02358 154.352 -84.4683 -156.318
lowerback 1.84764 -2.09113 1.20125
upperback -0.128955 -2.75664 0.965999
thorax -1.17575 -1.38473 0.395222
lowerneck 13.2799 -4.99028 -0.484412
upperneck -23.9936 -7.43875 0.78224
head -9.73474 -3.67651 1.28742
rclavicle 7.25098e-015 -9.24349e-015
rhumerus -18.4446 33.9515 -88.3078
rradius 96.0874
rwrist -4.63257
rhand -39.9078 -4.99871
rfingers 7.12502
rthumb -12.8789 -34.5813
lclavicle 7.25098e-015 -9.24349e-015
lhumerus -5.24903 -12.4955 71.2332
lradius 78.7103
lwrist 41.5472
lhand -28.306 12.1939
lfingers 7.12502
lthumb -1.68149 42.167
rfemur -29.7884 7.90731 23.0144
rtibia 37.2827
rfoot -9.22146 -11.007
rtoes -1.75323
lfemur 9.21333 12.5733 -22.6011
ltibia 8.30791
lfoot -16.2146 4.92313
ltoes 0.18861
292
root 6.02191 16.3971 -3.0299 153.584 -84.6263 -155.546
lowerback 1.81164 -2.08816 1.1872
upperback -0.147958 -2.75333 0.966125
thorax -1.17438 -1.38299 0.402084
lowerneck 13.2428 -5.12167 -0.538313
upperneck -23.8874 -7.61697 0.824584
head -9.68425 -3.75926 1.3273
rclavicle -4.02058e-014 6.4605e-015
rhumerus -18.4016 33.9726 -88.3367
rradius 96.1819
rwrist -4.51435
rhand -40.2318 -4.89378
rfingers 7.12502
rthumb -13.1913 -34.4565
lclavicle -4.02058e-014 6.4605e-015
lhumerus -5.42484 -12.5592 71.2671
lradius 78.836
lwrist 41.5676
lhand -28.3388 12.0746
lfingers 7.12502
lthumb -1.71316 42.0474
rfemur -29.8817 7.43203 23.2073
rtibia 37.0857
rfoot -8.99694 -11.6732
rtoes -1.01197
lfemur 9.79083 12.3318 -22.5923
ltibia 7.42882
lfoot -15.8798 5.00331
ltoes 0.166531
293
root 5.99144 16.3998 -3.03622 152.812 -84.777 -154.774
lowerback 1.77281 -2.08402 1.17611
upperback -0.164808 -2.74848 0.964621
thorax -1.16943 -1.38049 0.405421
lowerneck 13.2018 -5.24962 -0.600028
upperneck -23.7773 -7.78871 0.878841
head -9.6307 -3.83987 1.37118
rclavicle 2.35513e-014 -5.81445e-015
rhumerus -18.3575 33.9941 -88.3684
rradius 96.2688
rwrist -4.40573
rhand -40.531 -4.78955
rfingers 7.12502
rthumb -13.4797 -34.3333
lclavicle 2.35513e-014 -5.81445e-015
lhumerus -5.60246 -12.6205 71.302
lradius 78.9539
lwrist 41.569
lhand -28.3813 11.9465
lfingers 7.12502
lthumb -1.75415 41.9191
rfemur -29.962 6.91868 23.4122
rtibia 36.919
rfoot -8.87174 -12.3894
rtoes -0.235061
lfemur 10.407 12.0966 -22.5868
ltibia 6.48968
lfoot -15.5234 5.08365
ltoes 0.161144
